<svg id="eF0WMAorjEO1" xmlns="http://www.w3.org/2000/svg" xmlns:xlink="http://www.w3.org/1999/xlink" viewBox="0 0 300 300" shape-rendering="geometricPrecision" text-rendering="geometricPrecision" project-id="86cc8dfa48014b00bcc409594560993a" export-id="2ce8eeb52ab44dcba4ce8c23b12c1dcc" cached="false" style="background-color:#ff9a9c"><g transform="translate(58.140927 0)"><g transform="matrix(.85368 0 0 0.85368-32.008537-14.204695)"><path d="M119.287551,225.588479c-15.105583-1.318092-28.545766-15.313665-28.23344-27.134199" fill="none" stroke="#000" stroke-width="5" stroke-linecap="round"/><path d="M119.287551,225.588479c-15.105583-1.318092-28.545766-15.313665-28.23344-27.134199" transform="matrix(-1 0 0 1 290.196798 0.000001)" fill="none" stroke="#000" stroke-width="5" stroke-linecap="round"/><path d="M119.287551,225.588479h51.621695" transform="translate(.000001 0)" fill="none" stroke="#000" stroke-width="5"/><path d="M145.0984,225.588479c-20.111941-16.604786-23.312206-49.691636,0-66.478488" transform="translate(.055991 0.000001)" fill="none" stroke="#000" stroke-width="5" stroke-linecap="round" stroke-linejoin="bevel"/><path d="M137.790621,165.853106c2.059942-2.447225,4.490218-4.714222,7.307779-6.743115" transform="matrix(-1 0 0 1 290.252791 0.000001)" fill="none" stroke="#000" stroke-width="5" stroke-linejoin="bevel"/><path d="M145.0984,225.588479c-12.111089-9.999136-18.089572-25.97509-15.838949-40.76933" transform="matrix(-1 0 0 1 290.252791 0.000001)" fill="none" stroke="#000" stroke-width="5" stroke-linejoin="bevel"/><path d="M137.956423,225.588479c-19.834869-5.684613-40.914302-27.281943-26.451045-58.713233" transform="translate(.103941-.137239)" fill="none" stroke="#000" stroke-width="5" stroke-linecap="round"/><path d="M137.956423,225.588479c-19.834869-5.684613-40.914302-27.281943-26.451045-58.713233" transform="matrix(-1 0 0 1 289.64 0.000001)" fill="none" stroke="#000" stroke-width="5" stroke-linecap="round"/><path d="M91.054111,198.45428h17.690259" transform="translate(.000001 0)" fill="none" stroke="#000" stroke-width="5"/><path d="M91.054111,198.45428h17.690259" transform="translate(90.009024 0.000001)" fill="none" stroke="#000" stroke-width="5"/><path d="M156.411063,199.927873c1.010851-6.885313-7.338658-9.885992-11.78755-7.591996-.673934.347503-2.177088.440521-3.070531,0-4.445394-2.191848-11.910143.060049-11.576468,7.180769" transform="translate(1.924685 6.994671)" fill="none" stroke="#000" stroke-width="5" stroke-linecap="round"/><path d="M144.886388,203.675453c-.642859-1.089148-2.792321-2.006515-3.547816-2.396669" transform="translate(.083359-.544039)" fill="none" stroke="#000" stroke-width="0.6" stroke-linecap="round"/><path d="M144.886388,203.675453c-.642859-1.089148-2.792321-2.006515-3.547816-2.396669" transform="matrix(-1 0 0 1 289.984788-.544039)" fill="none" stroke="#000" stroke-width="0.6" stroke-linecap="round"/><rect width="1.57547" height="1.57547" rx="0" ry="0" transform="matrix(.898692 0.863124-.797865 0.830744 144.890322 200.462776)" stroke-width="0"/><path d="M111.609319,166.875247c4.268403-.069312,8.709795.939153,12.905412,2.812855" transform="translate(.198192-.133972)" fill="none" stroke="#000" stroke-width="5"/><path d="M111.609319,166.875247c7.224389-.117312,14.944328,2.852827,21.129444,7.879919c7.269208,5.908212,12.41841,14.657633,12.151559,24.575382" transform="matrix(-1 0 0 1 289.949273-.133972)" fill="none" stroke="#000" stroke-width="5"/><path d="M44.92,26.92L21.66,67.22c-1.041244,1.81171-1.038969,4.040804.005971,5.850385s2.97442,2.925812,5.064029,2.929615h46.54c2.097583.003896,4.037275-1.11366,5.085963-2.930285s1.046414-4.055225-.005963-5.869715L55.08,26.92c-1.045448-1.818068-2.98278-2.938836-5.08-2.938836s-4.034552,1.120768-5.08,2.938836Z" transform="matrix(.064831 0.039801-.047523 0.077408 160.593722 178.538991)"/><line x1="-0.32624" y1="-1.216673" x2="0.32624" y2="1.216673" transform="matrix(.263991-.040073 0.142384 0.937993 163.089421 184.81915)" fill="none" stroke="#000" stroke-width="3" stroke-linecap="round" stroke-linejoin="round" stroke-miterlimit="1"/></g></g></svg>
